<svg xmlns="http://www.w3.org/2000/svg" viewBox="20 -20 100 100"><path d="M109 73.9H28.1l6.6-67h66.7l7.6 67zm-77.1-3.4h73.3l-6.8-60.2H37.9l-6 60.2z"/><path d="M86 19h-3V1.8c0-8.1-6.9-14.6-15-14.6S53-6.3 53 1.8V19h-3V1.8c0-10 8-18.1 18-18.1S86-8.2 86 1.8V19z"/><circle cx="51.5" cy="20.2" r="2.2"/><path d="M51.5 24.1c-2.2 0-3.9-1.8-3.9-3.9s1.8-3.9 3.9-3.9c2.2 0 3.9 1.8 3.9 3.9s-1.7 3.9-3.9 3.9zm0-4.4c-.3 0-.5.2-.5.5s.2.5.5.5.5-.2.5-.5-.2-.5-.5-.5z"/><circle cx="84.2" cy="20.2" r="2.2"/><path d="M84.2 24.1c-2.2 0-3.9-1.8-3.9-3.9s1.8-3.9 3.9-3.9 3.9 1.8 3.9 3.9-1.7 3.9-3.9 3.9zm0-4.4c-.3 0-.5.2-.5.5s.2.5.5.5.5-.2.5-.5-.2-.5-.5-.5z"/></svg>