<svg id="Layer_1" xmlns="http://www.w3.org/2000/svg" viewBox="20 -20 100 100"><style>.st0{fill:#797979}</style><path class="st0" d="M86.2 13.8C67 1.1 75.7-11.3 75.7-11.3 57.1-.6 53 15.8 57.5 36.5c-6.7-5.4-7.7-11.9-7.5-20.3-8.5 9.1-10.1 18.9-9.5 29.3C41.4 62 55.4 75.1 72.1 75c16.2-.1 29.8-13.6 30.6-29.9.6-13.7-5.2-23.8-16.5-31.3zM72.3 65.3c-2.9 0-5.7-.6-8.2-1.6-3.4-1.3-6.3-3.4-8.7-6h.3c9.7-1.2 17.5-8.5 19.4-18 .3 1.4.4 2.9.4 4.4 0 4.1-1.1 8-3 11.3 6.8-3.9 11.3-11.2 11.3-19.6 0-5.7-2.1-10.9-5.6-14.8 9.6 2.6 16.6 11.4 16.6 21.8.1 12.4-10 22.5-22.5 22.5z"/></svg>