<svg id="Layer_1" xmlns="http://www.w3.org/2000/svg" viewBox="20 -20 100 100"><style>.st0{fill:#797979}</style><path class="st0" d="M87.2 17.8c.4 0 .9-.1 1.3-.1 7 0 13.9-.1 20.9-.1h3v.5c0 13.4-.1 26.9-.1 40.3 0 .3-.1.6-.2.9-.7 2.6-1.8 5-3.6 7.1-2.5 3-5.6 5-9.4 5.9-.6.1-1.2.3-1.8.3h-54c-1.5 0-2.8-.3-4.2-.7-2.7-.8-4.8-2.5-6.7-4.4-2.4-2.3-3.9-5.1-4.7-8.3 0-.2-.1-.4-.1-.6 0-13.5-.1-27-.1-40.6v-.5c8.4.1 16.7-.1 25.1.1 0 .1 0 .1.1.2l-.6 1.2c-1.4 2.3-2.4 4.8-3 7.4-.4 1.9-.3 3.9-.2 5.8.6 7.4 5.9 15 14.1 18 11.5 4.2 25.2-2.8 27.8-15.9 1.1-5.3.1-10.3-2.7-15-.3-.5-.6-1.1-.9-1.6v.1zM34.9-9.6c0 .3.1.5.1.7 0 1.2.1 2.4.1 3.7 0 3.8 0 7.6.1 11.4 0 .5.1 1.1.1 1.6 0 .3.2.5.5.5h2.1v-.5c.1-6.2.1-12.5.2-18.7 0-.4.1-.6.5-.7.5-.1 1-.3 1.5-.5.4-.1.6 0 .7.4.1.5.2 1 .2 1.5 0 5.3.1 10.6.1 15.9 0 .6.1 1.3.1 1.9 0 .5.2.7.7.7h1.8v-20.9h3.1v.5c0 6.1 0 12.2.1 18.3 0 .5.1.9.1 1.4 0 .3.2.5.5.5h2v-20.9h.6c16.1 0 32.3.1 48.4.1.2 0 .3 0 .5.1 3.3.8 6.2 2.5 8.6 4.9 2.1 2.1 3.7 4.4 4.4 7.4.2 1.1.4 2.3.4 3.5.1 4 .1 8 .2 11.9v.3H85.8c-.4 0-.8-.1-1.1-.4-2.6-2.4-5.7-4.1-9.1-5.1-2.4-.7-4.8-.9-7.3-.7-4.8.3-8.9 2.3-12.5 5.4-.6.5-1.1.7-1.8.7-3.7 0-7.5.1-11.2.1H27.6v-.5c.1-3.7.2-7.3.2-11 0-4.9 1.8-8.9 5.4-12.2.4-.4.9-.8 1.3-1.2 0 .2.1.1.4-.1zm62.2 4.7s0-.1 0 0c-1.3-.1-2.5 0-3.8-.1-.9 0-1.5.2-2.1.8-.4.4-.6.8-.6 1.4 0 2.9-.1 5.8 0 8.7 0 1.9.9 2.8 2.7 2.9 2.1.2 4.3.2 6.5.2.7 0 1.4 0 2.1-.1.9-.1 1.6-.4 2-1.3.1-.4.2-.8.3-1.1 0-2.9.1-5.9 0-8.8 0-1.5-1.1-2.4-2.5-2.5-1.6-.1-3.1-.1-4.6-.1z"/><path class="st0" d="M86.8 30.2c.2 9.4-7.4 17-17 17.2-8.8.1-16.9-7.9-16.8-16.9.1-9.2 7.6-16.8 16.6-17 9.7-.3 17.7 8.3 17.2 16.7zm-4.9.3c0-.4 0-.8-.1-1.3V29c-.8-4-2.7-7.3-6.6-9.1-1.6-.7-3.2-1.4-5-1.4-2.1-.1-4.1.5-6 1.6-4.3 2.4-6.7 7.2-6 12 .8 4.8 4 8.6 9.4 10 2.7.7 5.3.3 7.8-1 4.1-2.4 6.4-5.8 6.5-10.6z"/></svg>