<svg id="Layer_1" xmlns="http://www.w3.org/2000/svg" viewBox="20 -20 100 100"><style>.st0{fill:#797979}</style><path class="st0" d="M96.6 27.9c-5-9.1-14.6-15.1-23.9-20.8-10-6.2-19.4-12.1-22-21-.5-1.7-2.2-2.9-4-2.6-1.8.3-3.1 1.8-3.1 3.6 0 3.2-.3 8-.7 13.5C41.4 22.3 39 55 52.5 68.5c4.1 4.1 9.3 6.2 15.4 6.2.6 0 1.3 0 2-.1.1 0 .3 0 .4-.1.3.1.7.1 1 0 9.7-1 18.6-7.6 23.9-17.7 5.3-9.9 5.8-21 1.4-28.9zm-7.7 25.6c-1.8 3.5-4.2 6.4-6.8 8.6.8-6.2-.7-11.8-3.4-16.9.3-.3.6-.7.7-1.2.9-4.1.7-7.5.5-10.9-.1-1.4-.2-2.9-.2-4.4 0-1.3-1.1-2.4-2.4-2.4-1.3 0-2.4 1.1-2.4 2.4 0 1.6.1 3.2.2 4.7.1 2 .2 3.9.1 5.8-1.6-2.4-3.4-4.7-5.1-6.9.7-3.4.4-6.2.1-9-.1-1.2-.3-2.4-.3-3.7-.1-1.3-1.2-2.3-2.5-2.3-1.3.1-2.4 1.2-2.3 2.5.1 1.4.2 2.7.4 4 .1.8.2 1.6.2 2.4-3.5-4.9-6.2-9.7-6.6-14.8-.1-1.3-1.3-2.3-2.6-2.2-1.3.1-2.3 1.3-2.2 2.6.7 8.2 6 15.4 11.3 22.4-2.6-.5-4.7-1-4.8-2.1-.1-1.3-1.3-2.3-2.6-2.2-1.3.1-2.3 1.3-2.2 2.6.5 5 5.8 5.9 9.7 6.5 1.7.3 3.6.6 4.3 1.1.1.1.2.1.3.1 2.4 3.4 4.5 6.7 5.9 10.3-1.5-.4-3.3-.8-5.1-1.1-3-.5-8.1-1.4-8.4-2.9-.2-1.3-1.5-2.2-2.8-1.9-1.3.2-2.2 1.5-1.9 2.8.9 4.9 7 5.9 12.3 6.8 2.5.4 5.1.9 6.3 1.6.3.2.7.3 1 .3.3 2.7.1 5.6-.8 8.6-.1.3-.1.6-.1.9-1.9.8-3.8 1.4-5.8 1.6h-.3c-.3-.1-.6-.1-.9-.1-4.9.3-8.8-1-11.8-4-11.4-11-9.1-43-7.7-62.1 0-.6.1-1.2.1-1.8 5 5.5 11.9 9.7 18.6 13.9 8.5 5.3 17.2 10.7 21.3 18.2 3.3 5.9 2.7 14.4-1.3 22.2z"/></svg>