<?xml version="1.0" encoding="utf-8"?>
<!-- Generator: Adobe Illustrator 19.0.0, SVG Export Plug-In . SVG Version: 6.00 Build 0)  -->
<svg version="1.1" id="Layer_1" xmlns="http://www.w3.org/2000/svg" xmlns:xlink="http://www.w3.org/1999/xlink" x="0px" y="0px"
	 viewBox="15 -15 90 90" style="enable-background:new 15 -15 90 90;" xml:space="preserve">
<style type="text/css">
	.st0{fill:#797979;}
</style>
<path class="st0" d="M79.6,23.3C73.4,12.9,65.1,0.9,60-11.7c-5.1,12.6-13.4,24.6-19.6,35c-4.3,7.3-7.9,11.7-7.9,20.6
	C32.5,59,44.8,71.3,60,71.3S87.5,59,87.5,43.9C87.5,35,83.9,30.5,79.6,23.3z M58.8,65.2c-10.6,0-19.3-8.6-19.3-19.3
	c0-4.1,1-6.8,2.6-9.6c1,13.3,12.9,25.9,30.1,23.4C68.7,63.1,64,65.2,58.8,65.2z"/>
</svg>
