<?xml version="1.0" encoding="utf-8"?>
<!-- Generator: Adobe Illustrator 19.0.0, SVG Export Plug-In . SVG Version: 6.00 Build 0)  -->
<svg version="1.1" id="Layer_1" xmlns="http://www.w3.org/2000/svg" xmlns:xlink="http://www.w3.org/1999/xlink" x="0px" y="0px"
	 viewBox="20 -20 100 100" style="enable-background:new 20 -20 100 100;" xml:space="preserve">
<style type="text/css">
	.st0{fill:#797979;stroke:#797979;stroke-width:3;stroke-miterlimit:10;}
	.st1{fill:#797979;stroke:#797979;stroke-width:3;stroke-linecap:round;stroke-miterlimit:10;}
</style>
<g>
	<g>
		<g>
			<path class="st0" d="M40.7,37c-1.1,0-2,0.9-2,2s0.9,2,2,2h40v-4H40.7z"/>
		</g>
	</g>
</g>
<g>
	<g>
		<g>
			<path class="st0" d="M26.7,28c-1.1,0-2,0.9-2,2s0.9,2,2,2h72v-4H26.7z"/>
		</g>
	</g>
</g>
<g>
	<g>
		<g>
			<path class="st0" d="M32.7,19c-1.1,0-2,0.9-2,2s0.9,2,2,2h32v-4H32.7z"/>
		</g>
	</g>
</g>
<g>
	<path class="st0" d="M64.7,23c-1.1,0-2-0.9-2-2s0.9-2,2-2c4.2,0,7.6-3.4,7.6-7.6s-3.4-7.6-7.6-7.6c-4.2,0-7.6,3.4-7.6,7.6
		c0,1.1-0.9,2-2,2s-2-0.9-2-2c0-6.4,5.2-11.6,11.6-11.6c6.4,0,11.6,5.2,11.6,11.6S71.1,23,64.7,23z"/>
</g>
<g>
	<path class="st0" d="M98.7,32c-1.1,0-2-0.9-2-2s0.9-2,2-2c6.6,0,12.1-5.4,12.1-12.1s-5.5-12-12.1-12c-6.6,0-12.1,5.4-12.1,12
		c0,1.1-0.9,2-2,2c-1.1,0-2-0.9-2-2c0-8.9,7.2-16.1,16.1-16.1c8.9,0,16.1,7.2,16.1,16.1S107.6,32,98.7,32z"/>
</g>
<g>
	<path class="st1" d="M79.7,40"/>
</g>
<g>
	<path class="st0" d="M80.7,60.2c-6.4,0-11.6-5.2-11.6-11.6c0-1.1,0.9-2,2-2c1.1,0,2,0.9,2,2c0,4.2,3.4,7.6,7.6,7.6s7.6-3.4,7.6-7.6
		S84.9,41,80.7,41c-1.1,0-2-0.9-2-2s0.9-2,2-2c6.4,0,11.6,5.2,11.6,11.6S87.1,60.2,80.7,60.2z"/>
</g>
</svg>
